# xmcd
#
# Track frame offsets:
#	150
#	20292
#	35195
#	54590
#	68920
#	89520
#	106220
#	125775
#	141515
#	158715
#
# Disc length: 2354 seconds
#
# Revision: 3
# Processed by: cddbd v1.5.2PL0 Copyright (c) Steve Scherf et al.
# Submitted via: EasyCDDAExtractor 2011.3.0.0
#
DISCID=9009300a
DTITLE=Anne Murray - As I Am
DYEAR=1988
DGENRE=Pop
TTITLE0=Flying on Your Own
TTITLE1=If I Don't Fall Tonight
TTITLE2=You Make Me Curious
TTITLE3=As I Am
TTITLE4=I'm Losing Your Love
TTITLE5=I'll Be Your Eyes
TTITLE6=Slow All Night
TTITLE7=Who but You
TTITLE8=Take It From My Heart
TTITLE9=Slow Passin' Time
EXTD=YEAR: 1988
EXTT0=
EXTT1=
EXTT2=
EXTT3=
EXTT4=
EXTT5=
EXTT6=
EXTT7=
EXTT8=
EXTT9=
PLAYORDER=
